# xmcd CD database file
#
# Track frame offsets:
#	150
#	16038
#	29572
#	37448
#	44531
#	52208
#	62878
#	74222
#	79763
#	88748
#	96157
#	107817
#
# Disc length: 1513 seconds
#
# Revision: 1
# Processed by: cddbd v1.5.1PL0 Copyright (c) Steve Scherf et al.
# Submitted via: CDex 1.51
#
DISCID=b405e70c
DTITLE=Dean Martin - The Best Of Dean Martin
DYEAR=1900
DGENRE=Jazz
TTITLE0=Some Enchanted Evening
TTITLE1=Room Full Of Roses
TTITLE2=Candy Kisses
TTITLE3=Someday You'll Want Me To Want You
TTITLE4=I Can't Give You Anything But Love
TTITLE5=September Song
TTITLE6='A' You're Adorable
TTITLE7=Toot Toot Tootsie
TTITLE8=Five Foot Two, Eyes Of Blue
TTITLE9=I Don't See Me In Your Eyes Anymore
TTITLE10=Far Away Places
TTITLE11=Darktown Strutters Ball
EXTD=
EXTT0=
EXTT1=
EXTT2=
EXTT3=
EXTT4=
EXTT5=
EXTT6=
EXTT7=
EXTT8=
EXTT9=
EXTT10=
EXTT11=
PLAYORDER=
